# xmcd
#
# Track frame offsets: 
#        150
#        19452
#        35083
#        52397
#        69495
#        84427
#        101600
#        119566
#        138349
#        158043
#        171470
#
# Disc length: 2464 seconds
#
# Revision: 0
# Processed by: cddbd v1.5.2PL0 Copyright (c) Steve Scherf et al.
# Submitted via: ExactAudioCopy v0.99pb5
#
DISCID=a1099e0b
DTITLE=Martina McBride - Eleven
DYEAR=2011
DGENRE=Country
TTITLE0=Martina McBride - One Night
TTITLE1=Martina McBride - Always Be This Way
TTITLE2=Martina McBride - I'm Gonna Love You Through It
TTITLE3=Martina McBride - Marry Me
TTITLE4=Martina McBride - Broken Umbrella
TTITLE5=Martina McBride - You Can Get Your Lovin' Right Here
TTITLE6=Martina McBride - Whatcha Gonna Do
TTITLE7=Martina McBride - Teenage Daughters
TTITLE8=Martina McBride - Summer of Love
TTITLE9=Martina McBride - When You Love A Sinner
TTITLE10=Martina McBride - Long Distance Lullaby
EXTD=
EXTT0=
EXTT1=
EXTT2=
EXTT3=
EXTT4=
EXTT5=
EXTT6=
EXTT7=
EXTT8=
EXTT9=
EXTT10=
PLAYORDER=
